<?xml version="1.0" encoding="utf-8"?>
<!-- Generator: Adobe Illustrator 27.4.0, SVG Export Plug-In . SVG Version: 6.00 Build 0)  -->
<svg version="1.1" id="predator" xmlns="http://www.w3.org/2000/svg" xmlns:xlink="http://www.w3.org/1999/xlink" x="0px" y="0px"
	 width="147px" height="32px" viewBox="0 0 147 32" style="enable-background:new 0 0 147 32;" xml:space="preserve">
<path id="predator-logo" style="fill:#FFFFFF;" d="M24.44,0v18.22l-5.22,5.25V18.8l1.68-1.69v-4.52l-2.74,4.27V32l-2.47-6.25
	l-2.8-2.82V3.78l3.21,8.89l5.31-5.34L24.44,0z M0,0v18.22l5.22,5.25V18.8l-1.68-1.69v-4.52l2.74,4.27V32l2.47-6.25l2.8-2.82V3.78
	l-3.2,8.89L3.04,7.33L0,0z M117.6,9.57l-1.84,3.27h0.84v7.22l1,1.77h10.71l1-1.77v-8.71l-1-1.77H117.6z M120.62,18.57v-5.73h4.68
	v5.73L120.62,18.57z M75.46,9.57l-1.84,3.27h0.84v8.99h11.71l1-1.77v-8.71l-1-1.77H75.46L75.46,9.57z M83.15,18.57h-4.68v-5.73h4.68
	L83.15,18.57z M104.33,9.57l-1.84,3.27h4.46v9.29l4.02-2.06v-7.23h2.86l1.84-3.27L104.33,9.57z M70.28,17.47l1.84-3.27h-6.6v-1.36
	h5.85l1.84-3.27H61.51v12.26h8.7l1.84-3.27h-6.52v-1.09L70.28,17.47z M60.33,12.83l-2.64-3.26H46.06v12.56l4.02-2.06v-7.24h4.08
	l0.4,0.43l-3.97,3.73l11.18,8.17l-5.98-7.42L60.33,12.83z M147,25.16l-5.98-7.42l4.54-4.9l-2.63-3.27H131.3v12.56l4.02-2.06v-7.24
	h4.08l0.4,0.43l-3.98,3.73L147,25.16z M90.46,9.57l-1.84,3.27h0.84v9.29l4.02-2.06v-2.6h4.32v4.66l4.02-2.06v-8.73l-1-1.77
	L90.46,9.57L90.46,9.57z M97.79,14.37h-4.32v-1.53h4.32V14.37z M45.08,12.84l-2.63-3.27H31.82l-1.84,3.27h0.84v9.29l4.02-2.06v-3.07
	l2.93,1.32L45.08,12.84z M34.83,12.84h4.08l0.4,0.43l-4.47,3.07L34.83,12.84L34.83,12.84z"/>
</svg>
